<svg width="25" height="18" viewBox="0 0 25 18" fill="none" xmlns="http://www.w3.org/2000/svg">
<path fill-rule="evenodd" clip-rule="evenodd" d="M23.3889 0.893218C23.6451 1.16505 23.8452 1.4847 23.9778 1.83389C24.1105 2.18309 24.173 2.555 24.1619 2.92836C24.1507 3.30173 24.0662 3.66925 23.913 4.00992C23.7598 4.3506 23.5409 4.65775 23.269 4.91384L10.2744 17.1595C9.73137 17.6711 9.00905 17.9488 8.26315 17.9328C7.51725 17.9167 6.80754 17.6082 6.28701 17.0737L0.806014 11.4431C0.279924 10.9026 -0.00991478 10.1753 0.000259069 9.42111C0.0104329 8.66693 0.319786 7.94768 0.860264 7.42159C1.40074 6.8955 2.12807 6.60566 2.88225 6.61584C3.63643 6.62601 4.35567 6.93536 4.88176 7.47584L8.41064 11.101L19.37 0.774218C19.9189 0.256974 20.6507 -0.0210698 21.4045 0.00124673C22.1584 0.0235633 22.8725 0.344413 23.3898 0.893218" fill="#FFF116"/>
</svg>
